<svg width="24" height="24" viewBox="0 0 24 24" fill="none" xmlns="http://www.w3.org/2000/svg">
<path d="M18.18 8.04L18.643 7.576C19.0117 7.20722 19.5117 6.99998 20.0331 6.99989C20.5546 6.9998 21.0547 7.20685 21.4235 7.5755C21.7923 7.94415 21.9995 8.4442 21.9996 8.96565C21.9997 9.48709 21.7927 9.98722 21.424 10.356L20.961 10.82M18.18 8.04C18.18 8.04 18.238 9.024 19.107 9.893C19.976 10.762 20.961 10.82 20.961 10.82M18.18 8.04L13.92 12.3C13.63 12.588 13.486 12.733 13.362 12.892C13.216 13.08 13.091 13.282 12.988 13.498C12.901 13.68 12.837 13.873 12.708 14.26L12.295 15.5L12.161 15.901M20.961 10.82L16.701 15.08C16.411 15.37 16.267 15.514 16.108 15.638C15.92 15.784 15.718 15.909 15.502 16.012C15.32 16.099 15.127 16.163 14.74 16.292L13.5 16.705L13.099 16.839M12.161 15.901L12.028 16.303C11.997 16.3963 11.9926 16.4964 12.0153 16.5921C12.0379 16.6878 12.0867 16.7752 12.1562 16.8448C12.2258 16.9143 12.3132 16.9631 12.4089 16.9857C12.5046 17.0084 12.6047 17.004 12.698 16.973L13.099 16.839M12.161 15.901L13.099 16.839" stroke="#5F5D9C" stroke-width="1.5"/>
<path d="M8 13H10.5M8 9H14.5M8 17H9.5M3 14V10C3 6.229 3 4.343 4.172 3.172C5.343 2 7.229 2 11 2H13C16.771 2 18.657 2 19.828 3.172M21 14C21 17.771 21 19.657 19.828 20.828M19.828 20.828C18.657 22 16.771 22 13 22H11C7.229 22 5.343 22 4.172 20.828M19.828 20.828C20.772 19.885 20.955 18.48 20.991 16" stroke="#5F5D9C" stroke-width="1.5" stroke-linecap="round"/>
</svg>
